<?xml version="1.0" encoding="UTF-8" standalone="no"?>
<!-- Created with Inkscape (http://www.inkscape.org/) -->

<svg
   xmlns:dc="http://purl.org/dc/elements/1.1/"
   xmlns:cc="http://creativecommons.org/ns#"
   xmlns:rdf="http://www.w3.org/1999/02/22-rdf-syntax-ns#"
   xmlns:svg="http://www.w3.org/2000/svg"
   xmlns="http://www.w3.org/2000/svg"
   xmlns:sodipodi="http://sodipodi.sourceforge.net/DTD/sodipodi-0.dtd"
   xmlns:inkscape="http://www.inkscape.org/namespaces/inkscape"
   width="1000"
   height="228.11465"
   id="svg2"
   version="1.1"
   inkscape:version="0.48.5 r10040"
   sodipodi:docname="New document 1">
  <defs
     id="defs4" />
  <sodipodi:namedview
     id="base"
     pagecolor="#ffffff"
     bordercolor="#666666"
     borderopacity="1.0"
     inkscape:pageopacity="0.0"
     inkscape:pageshadow="2"
     inkscape:zoom="0.1767767"
     inkscape:cx="1361.1942"
     inkscape:cy="-145.55401"
     inkscape:document-units="px"
     inkscape:current-layer="layer1"
     showgrid="false"
     fit-margin-left="0.5"
     fit-margin-bottom="0.5"
     fit-margin-top="0.5"
     fit-margin-right="0.5"
     inkscape:window-width="1056"
     inkscape:window-height="1039"
     inkscape:window-x="860"
     inkscape:window-y="-21"
     inkscape:window-maximized="0">
    <inkscape:grid
       type="xygrid"
       id="grid2996"
       empspacing="5"
       visible="true"
       enabled="true"
       snapvisiblegridlinesonly="true"
       originx="-100.56792px"
       originy="-506.55625px" />
  </sodipodi:namedview>
  <metadata
     id="metadata7">
    <rdf:RDF>
      <cc:Work
         rdf:about="">
        <dc:format>image/svg+xml</dc:format>
        <dc:type
           rdf:resource="http://purl.org/dc/dcmitype/StillImage" />
        <dc:title></dc:title>
      </cc:Work>
    </rdf:RDF>
  </metadata>
  <g
     inkscape:label="Layer 1"
     inkscape:groupmode="layer"
     id="layer1"
     transform="translate(-100.56792,-317.69128)">
    <path
       style="font-size:medium;font-style:normal;font-variant:normal;font-weight:normal;font-stretch:normal;text-indent:0;text-align:start;text-decoration:none;line-height:normal;letter-spacing:normal;word-spacing:normal;text-transform:none;direction:ltr;block-progression:tb;writing-mode:lr-tb;text-anchor:start;baseline-shift:baseline;color:#000000;fill:#4d89fb;fill-opacity:1;stroke:none;stroke-width:41;marker:none;visibility:visible;display:inline;overflow:visible;enable-background:accumulate;font-family:Sans;-inkscape-font-specification:Sans"
       d="m 294.92222,320.71411 a 33.611779,33.611779 0 0 0 -32.4813,27.46054 l -14.49876,72.08391 -53.64026,-83.20133 a 33.611779,33.611779 0 0 0 -61.17143,11.52728 l -31.14926,152.92855 a 33.611779,33.611779 0 1 0 65.83356,13.42288 l 14.70368,-72.13515 53.8452,83.45749 a 33.611779,33.611779 0 0 0 61.17142,-11.62974 L 328.32571,361.3926 a 33.611779,33.611779 0 0 0 -33.40349,-40.67849 z"
       id="path2998"
       inkscape:connector-curvature="0" />
    <path
       style="font-size:medium;font-style:normal;font-variant:normal;font-weight:normal;font-stretch:normal;text-indent:0;text-align:start;text-decoration:none;line-height:normal;letter-spacing:normal;word-spacing:normal;text-transform:none;direction:ltr;block-progression:tb;writing-mode:lr-tb;text-anchor:start;baseline-shift:baseline;color:#000000;fill:#4d89fb;fill-opacity:1;stroke:none;stroke-width:42.29999924;marker:none;visibility:visible;display:inline;overflow:visible;enable-background:accumulate;font-family:Sans;-inkscape-font-specification:Sans"
       d="m 855.76272,321.53383 a 34.677518,34.677518 0 0 0 -29.35614,19.77568 l -37.55332,76.23374 -24.28413,-71.82775 a 34.677518,34.677518 0 0 0 -61.83744,-7.88979 l -49.08058,74.79922 -8.5558,-57.58514 a 34.677518,34.677518 0 1 0 -68.54888,10.19523 l 21.92744,147.54916 a 34.677518,34.677518 0 0 0 63.27194,13.93519 l 59.94185,-91.3985 28.38272,83.91858 a 34.677518,34.677518 0 0 0 63.93796,4.20105 l 74.5943,-151.49404 a 34.677518,34.677518 0 0 0 -32.83992,-50.41263 z"
       id="path3768"
       inkscape:connector-curvature="0" />
    <path
       style="font-size:medium;font-style:normal;font-variant:normal;font-weight:normal;font-stretch:normal;text-indent:0;text-align:start;text-decoration:none;line-height:normal;letter-spacing:normal;word-spacing:normal;text-transform:none;direction:ltr;block-progression:tb;writing-mode:lr-tb;text-anchor:start;baseline-shift:baseline;color:#000000;fill:#4d89fb;fill-opacity:1;stroke:none;stroke-width:13;marker:none;visibility:visible;display:inline;overflow:visible;enable-background:accumulate;font-family:Sans;-inkscape-font-specification:Sans"
       d="m 931.33042,320.81658 a 10.669897,10.669897 0 0 0 1.07588,21.31265 l 78.8977,0 32.84,83.1501 a 10.657393,10.657393 0 0 0 19.827,0 l 35.3503,-89.60537 a 10.660124,10.660124 0 1 0 -19.827,-7.83856 l -25.4624,64.50153 -25.5649,-64.80892 a 10.657393,10.657393 0 0 0 -9.9392,-6.71143 l -86.1215,0 a 10.657393,10.657393 0 0 0 -1.07588,0 z"
       id="path3770"
       inkscape:connector-curvature="0" />
    <path
       style="font-size:medium;font-style:normal;font-variant:normal;font-weight:normal;font-stretch:normal;text-indent:0;text-align:start;text-decoration:none;line-height:normal;letter-spacing:normal;word-spacing:normal;text-transform:none;direction:ltr;block-progression:tb;writing-mode:lr-tb;text-anchor:start;baseline-shift:baseline;color:#000000;fill:#4d89fb;fill-opacity:1;stroke:none;stroke-width:13;marker:none;visibility:visible;display:inline;overflow:visible;enable-background:accumulate;font-family:Sans;-inkscape-font-specification:Sans"
       d="m 970.52317,324.659 a 10.657393,10.657393 0 0 0 -10.50264,10.7588 l 0,85.81417 a 10.657393,10.657393 0 1 0 21.31266,0 l 0,-85.81417 A 10.657393,10.657393 0 0 0 970.52317,324.659 z"
       id="path3776"
       inkscape:connector-curvature="0" />
    <path
       sodipodi:type="arc"
       style="fill:#4d89fb;fill-opacity:1;stroke:none"
       id="path3778"
       sodipodi:cx="311.65732"
       sodipodi:cy="491.09616"
       sodipodi:rx="53.916893"
       sodipodi:ry="53.916893"
       d="m 365.57421,491.09616 c 0,29.77748 -24.13941,53.91689 -53.91689,53.91689 -29.77748,0 -53.91689,-24.13941 -53.91689,-53.91689 0,-29.77748 24.13941,-53.91689 53.91689,-53.91689 29.77748,0 53.91689,24.13941 53.91689,53.91689 z"
       transform="matrix(2.1061549,0,0,2.1061549,-205.47516,-602.57598)" />
  </g>
</svg>
